<svg xmlns="http://www.w3.org/2000/svg" width="200" height="200" viewBox="0 0 200 200">
  <rect width="200" height="200" fill="#f3f4f6" rx="8"/>
  <rect x="20" y="20" width="40" height="40" fill="#374151"/>
  <rect x="140" y="20" width="40" height="40" fill="#374151"/>
  <rect x="20" y="140" width="40" height="40" fill="#374151"/>
  <rect x="80" y="20" width="10" height="10" fill="#374151"/>
  <rect x="100" y="20" width="10" height="10" fill="#374151"/>
  <rect x="80" y="40" width="10" height="10" fill="#374151"/>
  <rect x="110" y="50" width="10" height="10" fill="#374151"/>
  <rect x="80" y="80" width="10" height="10" fill="#374151"/>
  <rect x="100" y="80" width="10" height="10" fill="#374151"/>
  <rect x="110" y="80" width="10" height="10" fill="#374151"/>
  <rect x="20" y="80" width="10" height="10" fill="#374151"/>
  <rect x="40" y="80" width="10" height="10" fill="#374151"/>
  <rect x="50" y="90" width="10" height="10" fill="#374151"/>
  <rect x="80" y="100" width="10" height="10" fill="#374151"/>
  <rect x="100" y="110" width="10" height="10" fill="#374151"/>
  <rect x="140" y="80" width="10" height="10" fill="#374151"/>
  <rect x="160" y="90" width="10" height="10" fill="#374151"/>
  <rect x="170" y="80" width="10" height="10" fill="#374151"/>
  <rect x="80" y="140" width="10" height="10" fill="#374151"/>
  <rect x="100" y="150" width="10" height="10" fill="#374151"/>
  <rect x="110" y="140" width="10" height="10" fill="#374151"/>
  <rect x="140" y="140" width="10" height="10" fill="#374151"/>
  <rect x="160" y="150" width="10" height="10" fill="#374151"/>
  <rect x="170" y="160" width="10" height="10" fill="#374151"/>
  <rect x="150" y="170" width="10" height="10" fill="#374151"/>
  <text x="100" y="195" text-anchor="middle" font-family="sans-serif" font-size="8" fill="#6b7280">Placeholder - Substitua pelo QR real</text>
</svg>
